<?xml version="1.0" encoding="UTF-8"?>
<svg width="383px" height="82px" viewBox="0 0 383 82" version="1.1" xmlns="http://www.w3.org/2000/svg" xmlns:xlink="http://www.w3.org/1999/xlink">
    <!-- Generator: Sketch 53.2 (72643) - https://sketchapp.com -->
    <title>Stagecoach</title>
    <desc>Created with Sketch.</desc>
    <defs>
        <path d="M121.275473,30.004275 C120.363151,29.8087473 119.754618,30.0313804 119.270919,30.004275 C119.126265,30.6052906 118.517733,30.8289739 118.268643,31.0025542 L115.261813,31.0025542 L125.284579,21.0197624 C125.425328,20.894498 125.426935,19.9939892 125.284579,19.0232041 C124.516278,19.0997813 124.04113,18.969562 123.280026,19.0232041 L104.23677,37.9905085 C104.274535,37.9259282 103.340844,36.6914698 105.239047,34.9956709 C105.452495,34.485092 107.213811,32.7507594 109.248153,31.0025542 L95.2162802,30.004275 L95.2162802,21.0197624 C95.6259796,20.5678994 92.2747649,23.1444572 92.2094503,28.0077167 C92.0412084,29.6832537 91.8349715,33.9794419 92.2094503,36.9922293 C91.7235501,39.6182546 90.9141375,42.0378141 90.204897,42.9819044 C91.6721248,42.6595065 93.1945276,42.4820301 95.2162802,41.9836252 L99.2253867,41.9836252 C109.425635,42.7755487 112.53365,40.6043511 116.264089,37.9905085 C118.40149,35.7111492 124.447176,29.9489431 124.282303,30.004275 L121.275473,30.004275 Z M86.1957905,43.9801835 L86.1957905,42.9819044 C81.0919562,45.0689119 74.6443971,45.9349206 67.1525344,45.9767419 C59.404616,45.4066239 52.4797919,44.669417 47.1070018,42.9819044 C49.0260814,45.1547798 50.5586028,47.6601313 51.1161083,49.9698586 C53.7449395,50.6864494 55.9962588,50.9681378 58.1320447,50.9681378 C78.4989047,50.9681378 85.9579491,44.5479454 86.1957905,43.9801835 L86.1957905,43.9801835 Z M36.0819588,55.9595337 C36.1445558,55.88923 38.9190153,54.2782397 40.0910653,53.9629753 C42.5863181,52.0148965 43.965777,50.9396314 44.1001719,49.9698586 C44.1126192,50.3009032 44.0986852,50.2115248 44.1001719,49.9698586 C43.9170082,49.9417548 43.6109977,49.4834183 39.0887887,51.966417 C38.1789094,52.474323 35.2061594,54.2346405 35.0796822,53.9629753 C35.4489313,54.8215947 35.7688757,55.3720345 36.0819588,55.9595337 L36.0819588,55.9595337 Z M34.0774055,52.9646961 C37.2927647,47.2624919 37.3227405,46.2538971 37.0842354,45.9767419 C36.4687227,45.7871508 35.562394,46.3167604 32.0728523,51.966417 C32.7035207,52.2492781 33.2930457,52.5819531 34.0774055,52.9646961 L34.0774055,52.9646961 Z M28.0637457,56.9578129 C27.1035983,57.1619865 26.2669193,57.9948683 26.0591925,58.9543712 C25.8102459,60.7381211 27.2769342,62.1980163 29.0660224,61.9492087 C30.0336417,61.7420066 30.8697652,60.9052509 31.0705756,59.9526504 C31.3125495,58.1619981 29.8519724,56.7126177 28.0637457,56.9578129 L28.0637457,56.9578129 Z M26.0591925,64.9440463 C24.2645989,63.4780714 23.2058575,61.5999098 23.0523626,59.9526504 C23.2058575,56.2483864 25.8671138,53.581129 29.0660224,53.9629753 C29.3541378,53.581129 29.8200851,53.6197849 30.068299,53.9629753 C30.0515426,53.6553483 30.2071953,53.3316695 30.068299,52.9646961 C29.3217944,53.0322151 28.7335486,52.9646961 28.0637457,52.9646961 C24.7876525,52.9646961 22.0500859,55.7566833 22.0500859,58.9543712 C22.0500859,61.6921686 23.4964428,63.9398806 26.0591925,64.9440463 C26.0864426,65.0526552 26.2077304,64.7052675 26.0591925,64.9440463 L26.0591925,64.9440463 Z M29.0660224,50.9681378 C29.4262544,50.9033534 29.7484665,50.9267629 30.068299,50.9681378 L30.068299,48.9715794 C30.0695319,48.2139826 30.0723986,46.135981 30.068299,43.9801835 C29.7880263,41.3936513 29.429121,40.9858904 29.0660224,40.985346 C28.7050038,40.9858904 28.3455251,41.3985509 28.0637457,43.9801835 C28.0605796,46.1828 28.0628729,48.2510023 28.0637457,49.9698586 L28.0637457,50.9681378 C28.4045783,50.9305737 28.7474303,50.9033534 29.0660224,50.9681378 L29.0660224,50.9681378 Z M50.1138317,53.9629753 C54.0148757,68.6144234 43.0636433,81.9147923 28.0637457,81.9147923 C14.2160942,81.9147923 8.58608983,70.1522423 9.0204897,69.9354422 C11.597586,69.0416831 14.7203053,79.3022387 28.0637457,78.9199548 C36.7917232,79.3022387 43.9078792,74.2741661 47.1070018,66.9406046 C47.9791721,64.7875249 48.5961951,61.6196916 48.1092784,58.9543712 C48.5427022,57.2870356 48.167192,55.9573148 48.1092784,55.9595337 C47.8997271,55.1907761 47.6846958,54.9537022 47.1070018,54.9612545 C46.9140791,55.0948929 46.654029,55.4489231 47.1070018,55.9595337 C46.7324148,56.2370619 47.122225,58.7163274 46.1047251,62.9474879 L37.0842354,59.9526504 C37.0062247,61.2314174 36.7387598,62.1533712 36.0819588,62.9474879 C38.4584799,64.2775527 40.7380225,65.780074 40.0910653,65.9423255 C40.1845555,66.7320571 37.7418857,65.5208733 35.0796822,63.9457671 C34.9999729,65.13576 34.2939715,65.8364449 33.0751289,65.9423255 C34.6525333,68.416335 35.6185849,70.0800665 36.0819588,69.9354422 C36.7016855,71.946101 38.3350752,74.6545379 38.0865121,74.9268381 C36.8690496,75.4985207 35.3527089,72.7742789 34.0774055,70.9337214 C34.2447155,70.8666248 33.2776047,69.1997323 32.0728523,66.9406046 C31.2459305,67.5718254 30.311657,67.8252309 29.0660224,67.9388838 L29.0660224,71.9320005 C29.3281275,74.3347516 29.3816205,77.4925751 28.0637457,77.9216756 C27.6873229,77.4941556 27.7429344,74.3805859 28.0637457,71.9320005 C27.7429344,72.1768529 27.7429344,70.2439109 28.0637457,67.9388838 C26.7620531,67.8162748 25.8330759,67.5539131 25.0569158,66.9406046 C23.8003424,69.1881421 22.8258168,70.8676785 23.0523626,70.9337214 C21.7411273,72.7347666 20.2004234,75.4969402 19.043256,74.9268381 C18.7328089,74.6545379 20.3466022,71.9861401 21.0478093,69.9354422 C21.4540659,70.0779592 22.4285916,68.3984228 24.0546392,65.9423255 C22.8136352,65.8122107 22.1224634,65.1241697 22.0500859,63.9457671 C21.3846839,64.4361288 20.1654676,65.1410283 20.0455327,65.9423255 C18.1046635,66.2731876 16.6121563,66.96597 16.0364261,66.9406046 C15.9967221,65.9070402 17.3838323,64.9534766 19.043256,63.9457671 C19.4107398,63.7449268 20.5939411,63.0705835 21.0478093,62.9474879 C20.2708646,61.886268 19.9843329,60.6850939 20.0455327,58.9543712 C19.9843329,55.9135879 22.1071041,52.9074916 25.0569158,51.966417 L24.0546392,49.9698586 C23.8474798,49.3060767 22.8401169,47.5654279 22.0500859,45.9767419 C20.3111168,43.7279928 19.8238539,43.5493972 19.043256,43.9801835 C19.3662506,43.8133394 19.0156332,44.0151155 20.0455327,46.9750211 C20.4233991,46.895826 21.5350999,49.0010417 21.0478093,48.9715794 C21.5350999,49.0010417 17.8822174,47.1703049 13.0295962,46.9750211 C10.9975113,48.2940348 9.18669424,50.7574954 8.01821307,53.9629753 C7.6677053,55.5669332 7.51834864,57.1274059 6.0136598,56.9578129 C6.0136598,47.8799459 17.0559891,34.3029908 33.0751289,36.9922293 C41.6823591,39.0955701 48.4251235,45.4976172 50.1138317,53.9629753 L50.1138317,53.9629753 Z M61.1388746,55.9595337 C57.8888238,55.4632104 55.393125,55.2110745 53.1206616,54.9612545 C53.4093372,56.3407064 53.5623829,57.8938849 53.1206616,59.9526504 C53.5623829,60.8812503 53.4436406,62.2520102 53.1206616,63.9457671 C56.3720891,63.888535 60.0705153,64.0541794 64.1457045,63.9457671 C67.6911311,63.6951085 70.8929507,63.2516428 74.1684709,62.9474879 C73.8615077,59.5110146 74.7391451,56.5650603 76.1730241,53.9629753 C72.0133501,55.1743811 66.8863223,55.7761526 61.1388746,55.9595337 L61.1388746,55.9595337 Z M68.1548111,19.0232041 L68.1548111,16.0283666 C66.0464724,16.347868 63.7411699,16.2382197 62.1411513,16.0283666 C59.8797494,16.0997166 57.2274398,16.0430563 55.1252148,16.0283666 L54.1229382,42.9819044 C54.1229382,42.9819044 55.6197607,42.7584108 56.1274915,39.9870668 C55.800225,40.3094246 56.3622424,29.9605168 56.1274915,30.004275 L66.1502578,30.004275 L66.1502578,30.004275 L68.1548111,29.0059959 L59.1343214,28.0077167 C59.8240633,24.2304767 61.0063623,19.0733357 68.1548111,19.0232041 L68.1548111,19.0232041 Z M8.01821307,39.9870668 C8.01821307,39.9870668 22.0532239,32.6979005 29.0660224,25.0128792 L29.0660224,21.0197624 C27.2062631,23.8789091 21.8754066,30.4734181 8.01821307,38.9887877 L8.01821307,39.9870668 Z M7.01593643,45.9767419 L0,45.9767419 L0,41.9836252 C23.225236,26.4046208 30.4791643,12.1885453 30.068299,12.0352498 C32.8760312,11.4613427 48.8031693,10.7053246 63.1434279,11.0369707 C77.0408586,11.6761504 92.4619087,13.6141346 95.2162802,14.0318082 C95.2014893,14.7683328 95.2217115,16.3600052 95.2162802,17.0266457 C91.1128728,15.9613012 78.7640059,14.4099708 63.1434279,14.0318082 C50.2703457,13.4297144 38.7521868,13.8624732 33.0751289,14.0318082 L33.0751289,34.9956709 C31.2811355,34.6731438 29.9342283,34.5542137 29.0660224,34.9956709 C19.7145497,34.5542137 11.9167498,39.1159949 7.01593643,45.9767419 L7.01593643,45.9767419 Z M49.111555,18.0249249 C49.732786,17.4862302 50.2988078,17.1892869 51.1161083,16.0283666 C45.6354481,15.9879451 42.8698354,16.0505693 38.0865121,16.0283666 L37.0842354,33.9973918 C40.4225777,36.5751448 46.0528699,38.3620233 51.1161083,38.9887877 L51.1161083,37.9905085 C43.7526644,37.0928385 43.6835241,30.9697527 44.1001719,29.0059959 C43.6835241,27.7811347 44.6164024,28.4032023 45.1024485,28.0077167 C46.0048845,28.0796436 46.4883507,26.7864529 46.1047251,26.0111583 C46.4883507,24.2026808 46.162772,23.9245248 46.1047251,24.0146 C46.162772,23.2012147 46.4346896,23.0874473 46.1047251,22.0180416 C46.4346896,21.3955489 45.7721808,20.8334963 44.1001719,21.0197624 C40.1104143,20.8334963 40.7858223,23.9688836 41.093342,26.0111583 C40.7858223,27.5123723 39.7678085,28.281085 39.0887887,29.0059959 L39.0887887,18.0249249 C39.3075611,18.2356337 48.0584551,17.638094 49.111555,18.0249249 L49.111555,18.0249249 Z M85.1935138,19.0232041 C86.6313482,19.3728326 87.4572797,19.0256366 88.2003437,18.0249249 C84.2830684,17.8590793 79.2440627,17.4031232 74.1684709,17.0266457 L73.1661942,39.9870668 C77.8720833,39.6691525 83.6969588,38.30233 87.1980671,36.9922293 L87.1980671,36.9922293 C86.9079392,36.7713216 87.9418628,32.3037887 88.2003437,24.0146 C87.6789916,23.8774903 86.8612919,22.9587807 85.1935138,23.0163208 C83.2897553,22.9587807 82.1504637,23.5214054 82.1866839,25.0128792 C82.1504637,25.2176456 82.4407745,25.3311118 82.1866839,26.0111583 C82.4407745,26.0563538 82.0939381,26.3350517 82.1866839,28.0077167 C82.0939381,28.9233345 82.4303475,30.2185217 83.1889606,30.004275 C83.9082436,30.5432335 85.0200957,30.00257 85.1935138,31.0025542 C85.9980425,32.53961 85.3784567,34.0758473 84.1912372,34.9956709 C83.0411527,36.0042487 80.7208612,37.5472835 75.1707475,37.9905085 L76.1730241,19.0232041 C75.6922826,19.2510003 84.3357524,19.3728326 85.1935138,19.0232041 L85.1935138,19.0232041 Z M90.204897,62.9474879 C90.204897,64.757352 90.903465,66.0902407 92.2094503,66.9406046 C92.0950765,66.9326771 92.1209693,66.9406046 92.2094503,66.9406046 C92.1830043,66.9406046 92.218607,66.926335 92.2094503,66.9406046 C92.2871153,66.8475878 92.2849575,66.7746542 92.2094503,66.9406046 C91.4283351,65.9137201 90.9822225,64.8413843 91.2071736,63.9457671 C90.9822225,61.3194294 92.9641059,59.3771749 95.2162802,58.9543712 C95.6051786,59.3771749 95.8187948,59.3940871 96.2185568,58.9543712 C96.0777234,59.4326679 96.0847361,59.4337249 96.2185568,58.9543712 C96.1489288,59.4337249 96.2007146,59.3946156 96.2185568,58.9543712 C96.2298441,59.2751735 96.1947808,59.210696 96.2185568,58.9543712 C95.6618192,59.0336469 95.1768674,58.9543712 94.2140035,58.9543712 C92.2180676,58.9543712 90.204897,60.9267505 90.204897,62.9474879 L90.204897,62.9474879 Z M96.2185568,62.9474879 C96.2185568,62.620215 95.5443775,61.9492087 95.2162802,61.9492087 C93.884448,61.9492087 93.2117269,62.620215 93.2117269,62.9474879 C93.2117269,64.2740083 93.884448,64.9440463 95.2162802,64.9440463 C95.5443775,64.9440463 96.2185568,64.2740083 96.2185568,62.9474879 L96.2185568,62.9474879 Z M89.2026204,65.9423255 C88.4306781,65.4820886 88.2662075,64.7099947 88.2003437,63.9457671 C88.2662075,60.906914 90.4825158,58.4285615 93.2117269,57.956092 C93.4580849,56.0453259 93.6500571,54.257235 94.2140035,53.9629753 C94.6428122,54.257235 94.8342452,56.0038784 95.2162802,57.956092 C95.4991377,57.9439437 96.0653478,58.0773199 96.2185568,57.956092 L96.2185568,57.956092 C97.2700273,57.139967 97.7941761,56.2451245 98.2231101,55.9595337 C98.8920846,54.3704188 100.461835,51.5843978 101.22994,51.966417 C101.954473,52.4335417 100.313002,55.1244458 99.2253867,56.9578129 C99.1908278,57.0416619 98.6758462,57.9210944 98.2231101,58.9543712 C98.481717,59.3898264 98.8980163,59.7931432 99.2253867,59.9526504 C101.146679,59.2325382 103.164005,58.2840264 103.234493,58.9543712 C103.716734,59.2277558 101.881135,60.4695889 100.227663,61.9492087 C100.258538,62.1014543 100.406292,62.6594025 100.227663,62.9474879 C101.79108,63.2423254 102.81673,63.2428568 103.234493,62.9474879 C105.013086,63.2428568 108.246955,63.1891875 108.245876,63.9457671 C108.246955,64.886944 105.061079,64.8316805 103.234493,64.9440463 C102.813494,64.8332747 101.766814,64.8332747 100.227663,64.9440463 C100.340504,65.3864404 100.17819,65.9135685 100.227663,65.9423255 C101.126727,67.0762261 102.050459,67.6017601 102.232217,67.9388838 C103.954003,68.6841795 106.781279,70.2315556 106.241323,70.9337214 C105.919561,71.7034759 103.188271,70.0838322 101.22994,68.937163 C101.240509,68.9775008 100.29305,68.4392137 99.2253867,67.9388838 C98.7459484,68.1660848 98.3425911,68.5274226 98.2231101,68.937163 C98.6084402,70.0476985 99.1746504,71.0137458 99.2253867,70.9337214 C100.274177,72.8916398 101.938834,75.6250542 101.22994,75.9251172 C100.445657,76.4741981 98.9012518,73.7264364 98.2231101,71.9320005 C97.7747632,71.8055007 97.1902186,70.8075707 96.2185568,69.9354422 C95.9871569,69.7368416 95.4856565,69.8542764 95.2162802,69.9354422 C94.9625862,71.3724267 94.9625862,72.5648416 95.2162802,72.9302797 C94.9625862,74.7371196 95.0159717,77.9232691 94.2140035,77.9216756 C93.2925359,77.9232691 93.3491569,74.7833496 93.2117269,72.9302797 L93.2117269,69.9354422 C92.8535882,69.7538458 92.3790502,69.6151558 92.2094503,68.937163 C91.1625072,70.7358345 90.5283519,71.8182538 90.204897,71.9320005 C89.4255902,73.7009302 87.85584,76.4869512 87.1980671,75.9251172 C86.3632022,75.6372759 88.0041331,72.9469032 89.2026204,70.9337214 C89.1322394,71.019591 89.7750227,69.9228243 90.204897,68.937163 C90.1719091,68.2941472 89.832183,67.9471566 89.2026204,67.9388838 C87.7781883,68.5640878 85.6136478,69.7336534 85.1935138,68.937163 C84.8603187,68.446653 86.9472075,67.2011002 89.2026204,65.9423255 L89.2026204,65.9423255 Z M367.835524,61.9492087 C367.124722,61.3429904 360.162138,57.868859 354.805928,54.9612545 C350.100983,52.9235338 349.102975,48.9024804 349.794545,43.9801835 C346.888262,47.174312 346.75651,51.3607503 346.787715,52.9646961 C345.799575,52.6529514 339.786992,49.9471274 330.751289,50.9681378 C331.526092,47.3276594 330.059218,45.1718975 329.749012,43.9801835 L328.746736,43.9801835 C329.545545,45.4545174 329.117751,48.6355616 326.742182,48.9715794 C326.531786,47.6809343 324.741133,46.3761724 322.733076,45.9767419 C314.613302,46.3761724 313.58649,61.3424671 306.69665,60.9509296 C305.274916,61.3424671 304.024073,60.3805126 303.68982,61.9492087 C301.719747,68.2771224 299.034034,75.8209807 298.678437,75.9251172 C299.562642,76.0046837 299.688527,76.7185606 299.680713,77.9216756 C299.492232,77.4486621 299.490632,77.4497088 299.680713,77.9216756 C297.839199,78.7612746 299.218594,80.9165131 299.680713,80.9165131 L303.68982,80.9165131 C303.93446,80.9165131 303.004729,79.0103988 302.687543,77.9216756 C302.503324,77.8652648 302.206749,77.5962525 301.685267,77.9216756 C302.689484,74.7962218 306.001952,66.4029337 307.698926,65.9423255 C315.52063,65.0201896 321.522545,61.5622826 324.737629,58.9543712 C323.577769,61.2498305 322.105561,62.7456226 321.730799,62.9474879 C320.280236,64.4502394 320.775239,65.0311804 321.730799,65.9423255 C322.653371,66.9671268 324.810476,68.6466218 328.746736,72.9302797 C327.763427,73.6013676 327.223084,73.9975589 326.742182,74.9268381 C326.457642,75.3331997 327.557531,77.8338626 328.746736,78.9199548 C329.031873,79.0260999 330.528084,75.839822 330.751289,75.9251172 C331.033222,74.5549482 330.998551,74.2320287 330.751289,73.9285589 L330.751289,72.9302797 C330.746782,72.7289095 325.759944,64.6297554 325.739906,64.9440463 L334.760396,56.9578129 C336.775367,57.8557747 344.535397,61.9851657 351.799098,60.9509296 C355.541752,62.0317456 364.322726,63.1622253 363.826418,62.9474879 L362.824141,63.9457671 C363.175897,64.3586496 362.500602,68.2624681 360.819588,71.9320005 L360.819588,72.9302797 C359.75408,72.5179913 358.630188,72.5216549 357.812758,72.9302797 C356.987823,73.5458904 355.971679,75.4174623 355.808205,76.9233964 C356.219714,77.2759499 359.530048,75.9492064 359.817311,75.9251172 C360.707815,75.3892003 360.875839,75.2280023 360.819588,74.9268381 C361.476457,74.557565 362.132016,74.3288522 361.821865,73.9285589 C362.542207,73.8122858 364.66144,68.1839625 367.835524,62.9474879 C367.937103,62.1201952 367.795216,61.6769006 367.835524,61.9492087 L367.835524,61.9492087 Z M294.66933,72.9302797 C294.311609,72.635472 294.448733,72.1448528 294.66933,71.9320005 C294.254959,71.5126279 290.791386,66.787523 287.653394,60.9509296 C287.878426,60.809023 287.441112,59.9525451 286.651117,59.9526504 C282.979551,58.2280082 275.194188,55.337461 270.614691,50.9681378 C268.637647,48.5814454 267.640718,47.1938144 267.607861,45.9767419 C267.425766,46.3947157 265.416026,50.9134658 267.607861,54.9612545 L265.603308,52.9646961 C262.792139,52.2663534 257.396652,50.4007372 250.569158,50.9681378 C250.705634,49.5790027 250.921644,47.4133296 250.569158,45.9767419 L250.569158,45.9767419 C250.269378,46.4005063 247.629608,50.8866186 242.550945,46.9750211 C240.104727,45.101313 235.683403,45.6203587 234.532732,50.9681378 C232.346365,58.2369572 227.131946,60.6116172 223.507689,60.9509296 C223.462951,61.5407405 223.282943,61.6649745 223.507689,61.9492087 L216.491753,75.9251172 C216.373797,75.6260381 215.362044,75.8155476 214.4872,75.9251172 C213.733497,76.4114499 213.159588,79.1066969 213.484923,80.9165131 C213.69273,80.9165131 216.735402,79.0998535 217.494029,78.9199548 C218.153233,78.1665189 217.981695,77.213707 217.494029,76.9233964 L218.496306,76.9233964 L226.514519,65.9423255 C232.499372,64.4586612 237.247888,62.4988165 241.548669,59.9526504 C240.839056,60.5379191 240.368387,61.1643534 239.544115,61.9492087 C238.226816,62.8204564 238.423767,63.3037057 238.541839,63.9457671 C238.981793,64.0464779 243.507415,69.190083 245.557775,72.9302797 C245.444623,73.5877575 244.928952,74.0062578 244.555499,74.9268381 C243.978084,75.2185925 244.599113,77.7527564 245.557775,78.9199548 C245.914763,79.1114346 247.759849,76.0977063 247.562328,75.9251172 C248.376113,74.9338018 248.404703,74.7137601 248.564605,73.9285589 C248.505825,73.7146237 248.892314,73.3103366 248.564605,72.9302797 L243.553222,63.9457671 C245.768639,62.8809941 248.9802,59.4092844 251.571435,56.9578129 C253.326344,56.8803847 255.106839,57.5994681 256.582818,57.956092 C259.930005,58.8175934 266.064585,63.1599943 274.623798,61.9492087 C278.134678,61.9687162 283.640288,63.2415887 286.651117,63.9457671 L286.651117,65.9423255 C286.779316,65.5130713 289.630861,68.3246561 291.6625,71.9320005 C291.401297,72.1122151 291.823787,72.4480681 292.664777,72.9302797 C291.893143,73.1076667 290.995748,73.9078181 290.660224,74.9268381 C290.757502,75.9650496 292.746065,77.8622508 294.66933,77.9216756 C294.562562,78.402353 294.680626,74.8764225 294.66933,74.9268381 C294.642507,73.609867 294.566268,73.3803499 294.66933,72.9302797 L294.66933,72.9302797 Z M382.869674,36.9922293 C382.005358,36.8691278 380.376207,35.1232376 378.860567,32.9991126 C378.052139,32.4022822 376.56017,30.4998425 375.853738,30.004275 L375.853738,30.004275 L375.853738,33.9973918 C376.350894,34.5753142 380.051779,37.5725639 379.862844,37.9905085 C381.032073,38.4709095 380.497868,39.4060597 379.862844,38.9887877 C378.685976,38.7472039 378.06766,40.7123671 377.858291,40.985346 C378.297463,41.1047777 378.554302,41.9989762 379.862844,41.9836252 C380.304613,41.9709839 380.587486,41.554728 380.865121,41.9836252 L381.867397,40.985346 C382.066939,41.4064725 382.1886,40.0778749 382.869674,39.9870668 C383.273532,38.4273659 382.58312,37.1791166 382.869674,36.9922293 L382.869674,36.9922293 Z M368.837801,37.9905085 C369.431327,38.8370669 369.850658,39.6179499 369.840078,39.9870668 C370.287373,40.2721036 376.856014,40.7995283 376.856014,40.985346 L370.842354,37.9905085 L369.840078,32.9991126 L369.840078,32.9991126 L369.840078,32.9991126 L369.840078,32.9991126 C369.603063,33.0022677 369.599375,33.0075261 369.840078,32.9991126 C364.037971,34.5151297 355.206207,41.3364181 352.801375,43.9801835 C360.132819,47.0897111 358.380163,56.4860727 364.828695,57.956092 C367.695528,58.5126873 370.744633,57.9105924 372.846908,57.956092 L371.844631,57.956092 C372.349259,58.4143539 372.755947,62.1000162 371.844631,65.9423255 L371.844631,66.9406046 C371.812979,67.0377203 370.661399,66.5187092 369.840078,66.9406046 C368.921386,67.3705815 367.633893,69.0501371 367.835524,70.9337214 C367.59649,70.9337214 371.028577,70.1023571 371.844631,69.9354422 C372.351893,69.6927222 372.484646,69.5591571 372.846908,68.937163 L372.846908,68.937163 C372.779126,68.8566254 374.049236,67.9532201 373.849184,67.9388838 C374.287348,67.3658489 374.637142,61.4395522 375.853738,54.9612545 C376.111122,55.0962588 375.963619,54.741312 375.853738,54.9612545 L362.824141,51.966417 C362.673038,51.8102404 364.670128,39.9897237 368.837801,37.9905085 L368.837801,37.9905085 Z M128.291409,51.966417 C135.496242,53.2622557 138.889966,47.8867955 139.316452,47.9733003 C136.692675,49.1011613 131.559074,49.9781113 131.298239,48.9715794 C139.488984,42.8040201 147.608592,43.6539105 150.341495,43.9801835 L151.343772,42.9819044 C149.1561,41.4769982 146.337348,39.9870668 142.323282,39.9870668 C134.121867,39.9870668 131.230976,44.6683671 125.284579,44.9784627 C122.155397,44.8125005 119.662071,41.9640699 119.270919,41.9836252 L119.270919,41.9836252 C119.274126,42.1960088 120.519186,50.1625579 128.291409,51.966417 L128.291409,51.966417 Z M209.475816,54.9612545 C209.26282,54.2962344 209.116417,53.9629753 208.47354,53.9629753 L194.441667,53.9629753 C193.784163,57.3667472 196.496299,59.8214319 198.450773,59.9526504 C201.007923,59.3900286 204.122402,58.2230827 206.468986,56.9578129 L206.468986,57.956092 C206.186258,58.2484277 207.191064,63.2731974 207.471263,66.9406046 C206.70604,67.1488166 205.83447,67.1250895 204.464433,67.9388838 C204.155053,68.024026 203.192376,70.0171092 203.462157,71.9320005 C203.443051,71.9320005 206.706567,70.5552848 207.471263,69.9354422 C207.952042,69.9329856 208.200611,69.6692903 208.47354,68.937163 C208.647192,68.2332566 209.458726,67.4281503 209.475816,66.9406046 C209.589329,66.8031548 208.917878,60.8546428 209.475816,54.9612545 L209.475816,54.9612545 Z M199.45305,77.9216756 C198.572953,76.5064481 196.960923,73.6307996 196.44622,70.9337214 C192.2385,64.0165498 193.847874,54.816789 193.43939,54.9612545 C192.871095,54.816789 191.209669,55.0214034 190.43256,56.9578129 C187.319021,51.4651094 183.988201,48.3701184 176.400687,47.9733003 C176.048623,48.3701184 178.038829,50.409425 181.412071,53.9629753 C174.982612,52.170477 167.400496,51.8333102 163.371091,51.966417 C164.346934,50.2637227 164.835058,48.7025511 165.375645,47.9733003 C164.945005,47.8320192 162.558033,50.6797896 159.361985,50.9681378 C153.812174,50.6797896 157.853137,44.9784627 155.352878,44.9784627 C151.65147,44.9784627 148.663771,48.1155338 148.336942,51.966417 C147.847399,60.7022163 142.648006,61.9909192 140.318729,61.9492087 C138.946446,61.9909192 138.504001,62.2097357 138.314175,62.9474879 C137.568121,63.1833639 130.154909,72.1527362 127.289132,74.9268381 C127.062043,75.0446908 126.200523,75.0510028 125.284579,74.9268381 C123.775308,75.1114929 123.239381,77.7735849 123.280026,79.918234 C123.282404,79.6571952 126.485218,78.6335969 127.289132,78.9199548 C127.696763,78.2043799 128.040415,77.6226226 128.291409,76.9233964 L128.291409,76.9233964 C130.02584,76.0861731 137.835287,68.4449538 139.316452,67.9388838 C147.082017,66.2778289 153.396818,63.0208296 157.357431,59.9526504 C157.138214,62.0998015 156.387173,63.5925928 155.352878,64.9440463 C154.342259,65.5919234 154.743805,66.1563226 155.352878,66.9406046 C157.027735,68.3397536 160.438227,71.5278468 163.371091,74.9268381 C163.220373,75.8952347 162.878845,76.7026465 162.368815,77.9216756 C162.723219,78.4899986 164.640658,80.2752466 166.377921,80.9165131 C166.49436,80.7002556 166.387599,77.1760476 166.377921,76.9233964 C166.262249,75.8505246 166.163986,75.6606382 165.375645,74.9268381 C165.905318,74.9010924 166.150177,74.5460416 166.377921,74.9268381 L160.364261,65.9423255 C162.171358,64.3884326 165.311496,59.4797895 167.380198,56.9578129 C172.566426,57.917566 179.669449,62.5521625 186.423454,61.9492087 C186.599848,61.8136568 190.440038,67.7927124 192.437114,70.9337214 L192.437114,70.9337214 C194.089545,73.1547685 195.705293,76.4070338 196.44622,77.9216756 C196.527508,78.0360595 197.404962,77.9781994 198.450773,78.9199548 C198.005689,78.9781277 197.971164,79.2853124 198.450773,79.918234 C197.971164,81.1205305 198.456101,81.8969083 198.450773,81.9147923 L198.450773,81.9147923 L203.462157,81.9147923 C203.011744,81.321989 201.451236,79.3216064 201.457603,78.9199548 C200.734188,78.4921026 200.312458,78.2112179 199.45305,77.9216756 L199.45305,77.9216756 Z M282.642011,77.9216756 C281.009355,76.5334345 279.41668,73.6536668 278.632904,70.9337214 C278.379723,70.9874089 278.121916,70.5609124 277.630627,69.9354422 C276.74382,68.1343299 276.408931,66.8553635 275.626074,63.9457671 C274.442306,64.5988564 270.897069,64.5161736 268.610138,63.9457671 C268.728885,64.1770695 272.849632,68.5723393 274.623798,70.9337214 C276.588615,73.1701295 278.014627,76.0792026 278.632904,77.9216756 C279.014606,77.9270056 279.622405,77.8757213 280.637457,78.9199548 C280.182289,78.6392287 279.838026,80.2499729 280.637457,81.9147923 C280.773423,81.9208976 285.648841,81.9099081 285.648841,81.9147923 C285.100415,81.0092938 284.107206,79.6685769 283.644287,79.918234 C283.511386,78.8124439 283.040041,78.3320465 282.642011,77.9216756 L282.642011,77.9216756 Z M249.566882,37.9905085 C240.956172,37.9905085 239.544115,41.9836252 239.544115,41.9836252 C242.313486,41.1355731 246.017786,40.5062321 249.566882,40.985346 C254.010854,40.5062321 257.497792,41.1935316 260.591925,40.985346 C264.646094,41.1935316 266.013068,39.948519 266.605584,38.9887877 C265.634158,38.9123755 264.568273,39.3344878 261.594201,38.9887877 C257.428021,39.3344878 254.322677,37.9905085 249.566882,37.9905085 L249.566882,37.9905085 Z M243.553222,31.0025542 C252.760715,29.3810089 259.111456,32.1745266 261.594201,32.9991126 L261.594201,32.9991126 C256.890498,30.2626893 251.160841,27.4589133 240.546392,30.004275 C228.084822,32.8424009 227.420814,36.0273566 211.48037,36.9922293 L211.48037,38.9887877 C228.51407,37.7070306 231.764161,32.8742558 243.553222,31.0025542 L243.553222,31.0025542 Z M261.594201,35.9939501 C261.594201,35.5602691 264.54581,38.6212641 268.610138,37.9905085 C271.052234,37.3049921 275.259928,33.5356175 280.637457,29.0059959 C280.637457,29.3957653 279.613374,28.0077167 276.628351,28.0077167 C273.402821,28.0077167 267.591312,31.3375978 262.596478,31.0025542 C265.521856,33.7531557 269.012801,34.6100576 269.612414,33.9973918 C268.01765,37.0311368 261.594201,35.5602691 261.594201,35.9939501 L261.594201,35.9939501 Z M283.644287,29.0059959 C285.589277,28.6198891 286.716847,28.079641 288.65567,28.0077167 C291.056364,28.079641 292.664777,29.0059959 292.664777,29.0059959 C292.663151,28.680642 292.501063,27.1839136 291.6625,26.0111583 C291.722606,25.3673542 291.080758,24.9099508 290.660224,26.0111583 C290.43078,26.3534578 290.258391,26.7551293 289.657947,27.0094375 C289.824711,27.6408149 289.133532,27.6543713 289.657947,27.0094375 C289.35742,26.8977226 290.413974,25.0128792 285.648841,25.0128792 C280.988468,25.0128792 278.702429,26.1947975 276.628351,25.0128792 C279.356202,28.1228207 282.125795,28.6198891 283.644287,29.0059959 L283.644287,29.0059959 Z M214.4872,51.966417 C223.367979,53.4074064 226.892402,46.3801797 233.530456,43.9801835 C230.017121,42.602735 225.169043,45.0708518 225.512243,44.9784627 C232.311029,40.7559152 235.181875,41.8298642 238.541839,42.9819044 C237.862714,41.6844983 236.594944,40.6710753 234.532732,39.9870668 C225.512331,38.5035194 222.531847,45.7614692 212.482646,43.9801835 C212.507306,43.980866 213.957631,47.260135 217.494029,46.9750211 C217.472474,47.4582672 212.427472,49.1271301 208.47354,47.9733003 C208.47354,47.9714451 210.308134,50.8544497 214.4872,51.966417 L214.4872,51.966417 Z M194.441667,29.0059959 C201.292715,27.4603726 204.538891,25.7222115 208.47354,28.0077167 C208.473055,28.3146983 208.517116,26.0468166 207.471263,25.0128792 C207.526011,24.6685753 206.840677,24.5771441 206.468986,26.0111583 C205.711019,26.6360401 205.369148,26.4444699 205.46671,26.0111583 C205.247582,25.4943591 205.528935,24.0691928 203.462157,24.0146 C199.144347,23.9100347 192.862213,27.5077813 187.42573,24.0146 C187.42573,24.3657396 189.993474,28.8923115 194.441667,29.0059959 L194.441667,29.0059959 Z M202.45988,31.0025542 C193.037519,35.4887764 190.110047,42.0291025 188.428007,44.9784627 C193.821214,47.9222308 194.981838,52.9646961 195.443944,52.9646961 C194.981838,52.9646961 197.918209,40.0806742 200.455327,36.9922293 C201.657122,38.4245626 205.46671,40.858258 205.46671,40.985346 L202.45988,35.9939501 L202.45988,31.0025542 L202.45988,31.0025542 Z M209.475816,40.985346 C209.378223,41.8541189 208.415293,42.4283019 207.471263,41.9836252 C207.00954,40.9558974 205.46671,42.4069548 205.46671,41.9836252 C205.493787,42.8689285 205.304811,43.7923287 206.468986,43.9801835 C206.983592,44.6215825 207.455184,44.3878588 207.471263,43.9801835 L208.47354,44.9784627 C208.935399,44.9784627 209.698071,43.8530859 210.478093,43.9801835 C211.53198,42.9094333 211.480082,41.4583759 211.48037,40.985346 C210.824027,40.539902 209.344376,34.7745352 209.475816,32.0008334 C208.910578,31.9583563 208.789296,31.4744881 208.47354,31.0025542 C208.642628,31.013609 208.50273,30.9993776 208.47354,31.0025542 C207.065387,33.5916853 206.455024,34.6606839 206.468986,34.9956709 C206.765847,35.2014778 208.878988,40.5743859 209.475816,40.985346 L209.475816,40.985346 Z M296.673883,38.9887877 C296.799462,39.9763903 296.047514,40.7054532 295.671607,39.9870668 C294.470382,39.6136647 293.372888,41.2786937 293.667054,40.985346 C293.494086,41.7043674 293.5142,42.6047317 294.66933,42.9819044 C295.205826,43.0407247 295.584895,42.7280481 295.671607,42.9819044 L296.673883,42.9819044 C297.046501,42.9819044 297.503962,41.7776348 297.67616,40.985346 C298.969695,40.5279601 298.622086,39.1843792 298.678437,38.9887877 C297.83713,38.4578962 295.303817,33.3735467 294.66933,31.0025542 C294.327006,30.8324038 294.118131,30.4041503 293.667054,30.004275 L293.667054,30.004275 C292.99485,32.7285865 292.664777,33.8482373 292.664777,33.9973918 C293.057771,34.2904219 296.084131,38.881506 296.673883,38.9887877 L296.673883,38.9887877 Z M361.821865,30.004275 C364.166463,30.1437561 365.139963,29.3888 367.835524,29.0059959 C371.745556,27.5727702 374.85146,29.1542947 374.851461,29.0059959 C374.852504,28.7846335 374.215342,26.836978 373.849184,26.0111583 C373.408967,25.4475967 372.879391,25.4491096 372.846908,26.0111583 C372.536264,26.2706349 372.161801,27.3584373 371.844631,27.0094375 C372.02079,27.7205338 371.754435,27.6690939 371.844631,27.0094375 C371.244183,26.667529 370.739676,24.7778695 368.837801,25.0128792 C356.431736,26.8848877 354.805928,25.0128792 354.805928,25.0128792 C356.462027,27.2535403 359.360591,29.8119183 361.821865,30.004275 L361.821865,30.004275 Z M347.789992,37.9905085 C351.292508,37.6623428 358.630977,32.2306543 360.819588,32.0008334 C358.249852,31.558534 357.548873,30.8821631 354.805928,31.0025542 C349.38325,31.3693839 348.127199,36.0120617 341.776332,33.9973918 C342.252998,35.3978553 345.449461,38.2303244 347.789992,37.9905085 L347.789992,37.9905085 Z M286.651117,37.9905085 C286.358388,38.0280653 286.526899,38.5904559 286.651117,38.9887877 C286.717322,39.1868165 292.664777,41.4169678 292.664777,40.985346 L288.65567,36.9922293 L287.653394,32.9991126 L287.653394,32.0008334 C282.474282,33.6410946 278.381494,40.7774708 272.619244,43.9801835 C278.979891,47.4312587 280.914379,52.9338442 281.639734,54.9612545 C282.117956,54.9612545 283.359618,53.3706002 283.644287,48.9715794 C283.652295,44.3529382 281.66042,41.5550042 286.651117,37.9905085 L286.651117,37.9905085 Z M318.723969,30.004275 C331.222169,32.0969228 341.457914,38.370182 344.783162,40.985346 C341.17106,41.8913016 335.95311,39.0808815 329.749012,39.9870668 C324.933335,40.2988382 322.362358,41.8362588 320.728523,42.9819044 L321.730799,42.9819044 C324.216737,42.2539365 326.787714,41.7801368 331.753566,41.9836252 C336.153801,41.8017222 339.285106,42.5701627 341.776332,42.9819044 C346.544746,43.2630543 346.787715,40.4213354 346.787715,39.9870668 C346.787715,40.4213354 333.706984,30.8152892 318.723969,29.0059959 C303.243254,26.5948023 295.671607,29.8202019 295.671607,30.004275 L295.671607,31.0025542 C296.116337,31.0057804 303.00082,28.1883451 318.723969,30.004275 L318.723969,30.004275 Z M319.726246,42.9819044 C319.724635,42.8276346 319.723561,42.7153532 319.726246,42.9819044 C318.2704,42.2797879 316.598675,41.9836252 314.714863,41.9836252 C302.823183,41.9836252 302.075659,50.4991163 291.6625,50.9681378 C291.106604,50.4991163 289.006878,50.1704083 288.65567,49.9698586 L288.65567,50.9681378 C288.668559,50.49098 288.683595,50.5072526 288.65567,50.9681378 C290.166829,51.9164663 294.162215,54.8607358 300.68299,54.9612545 C308.304488,55.0815017 312.568919,48.9505 312.71031,48.9715794 C310.898267,49.9941209 303.716238,52.9703933 302.687543,51.966417 C309.012273,45.4008871 317.124949,43.4123661 319.726246,42.9819044 L319.726246,42.9819044 Z M184.418901,36.9922293 C186.469092,35.034487 189.206337,32.2907118 192.437114,31.0025542 C192.172835,29.7797118 190.251245,29.0059959 188.428007,29.0059959 C181.309826,29.0059959 179.911486,36.037126 171.389304,33.9973918 C174.298489,37.6456408 178.097624,39.0532976 184.418901,36.9922293 L184.418901,36.9922293 Z M100.227663,24.0146 L106.241323,24.0146 L110.25043,28.0077167 C110.098154,28.3579264 112.585187,23.312361 113.25726,22.0180416 C113.893846,20.568291 113.758796,18.8414981 110.25043,18.0249249 C109.140095,18.3382306 107.958012,18.2855943 107.2436,18.0249249 L108.245876,15.0300874 L111.252706,17.0266457 L119.270919,17.0266457 C119.377395,17.4031306 119.74865,17.0529381 119.270919,17.0266457 L120.273196,16.0283666 C129.061257,11.9461427 148.02542,39.8471418 168.382474,33.9973918 L168.382474,33.9973918 C146.450369,35.5503009 129.883736,11.2742242 119.270919,15.0300874 L119.270919,15.0300874 L118.268643,15.0300874 C116.728832,14.6746367 116.012273,15.3068094 116.264089,15.0300874 L113.25726,15.0300874 L112.254983,14.0318082 L112.254983,14.0318082 L114.259536,14.0318082 L117.266366,13.033529 L118.268643,13.033529 C119.295306,13.0950105 120.596021,13.220156 120.273196,13.033529 C121.406319,13.2491597 122.087394,12.6062449 122.277749,12.0352498 L122.277749,11.0369707 C138.737174,8.84812045 161.893705,32.4324058 174.396134,32.0008334 L174.396134,32.0008334 C164.650838,31.9661985 139.004096,6.81141788 121.275473,10.0386915 L119.270919,10.0386915 C119.193092,10.4476195 118.621646,11.4971228 117.266366,11.0369707 C115.448242,11.4391155 111.163723,10.3197884 111.252706,10.0386915 C111.163723,10.3197884 110.52025,8.94211384 110.25043,9.04041231 C110.407444,8.67033866 110.597573,7.97747307 111.252706,8.04213313 C110.957176,7.99090069 112.082061,8.03118358 112.254983,8.04213313 C112.429483,8.03494331 112.536993,7.91624308 112.254983,8.04213313 C112.737714,7.38504613 112.933139,6.8452555 113.25726,6.04557477 C113.302275,5.24629359 113.312338,4.65386665 113.25726,5.04729559 C113.312338,4.65386665 115.792487,4.67642507 116.264089,5.04729559 C116.196047,4.6796477 116.298791,4.553428 116.264089,4.04901642 C116.079004,3.80900032 115.523976,2.77238746 113.25726,3.05073724 L113.25726,0.0558997039 C112.627026,-0.00444595444 108.68887,-0.3771969 108.245876,2.05245806 C109.110437,1.25291711 112.227703,0.765762771 112.254983,2.05245806 L112.254983,3.05073724 C108.943611,2.50437201 105.09178,2.86584375 105.239047,4.04901642 C104.778253,4.57168957 107.234569,5.0894589 108.245876,5.04729559 C108.075055,5.25972122 107.607412,6.75717026 107.2436,7.04385395 L108.245876,9.04041231 C108.668745,8.68967444 109.861419,11.0883859 111.252706,13.033529 C111.520678,14.4232715 106.23732,10.7204689 106.241323,11.0369707 C105.423843,11.3402882 106.459754,12.7421325 106.241323,13.033529 C107.026434,14.0934889 106.670538,14.16009 106.241323,14.0318082 C106.349067,14.4007131 103.100458,15.9529468 101.22994,17.0266457 L99.2253867,17.0266457 C100.472549,15.6118851 101.657809,12.9462324 102.232217,12.0352498 C102.917744,11.033064 101.360699,11.472416 100.227663,13.033529 C100.014968,13.3898812 98.2789171,15.8100769 97.2208334,17.0266457 L97.2208334,20.0214833 C97.1587986,21.9738951 98.6067438,23.5481502 100.227663,24.0146 L100.227663,24.0146 Z M86.1957905,3.05073724 L75.1707475,2.05245806 C74.8963026,1.09022767 73.4715684,0.116464844 72.1639176,0.0558997039 C69.3202152,-0.0293592106 67.240284,1.9187006 67.1525344,4.04901642 L67.1525344,4.04901642 C74.6575174,4.82716939 81.1376915,5.45640286 86.1957905,6.04557477 L86.1957905,3.05073724 Z M47.1070018,8.04213313 C48.8936783,8.15356363 49.7395312,9.08899953 50.1138317,10.0386915 C50.0895208,9.96189332 50.5282102,9.95704092 51.1161083,10.0386915 L51.1161083,10.0386915 L51.1161083,8.04213313 C59.1085677,8.20586177 69.054152,8.54660845 74.1684709,9.04041231 C75.6505222,9.10355675 75.8744088,10.2314714 76.1730241,11.0369707 C75.8578444,10.9232087 76.7368261,10.9986906 77.1753008,11.0369707 L77.1753008,9.04041231 C83.2444966,9.63678217 89.3407289,10.2169142 95.2162802,11.0369707 C95.2296391,10.3781219 95.1917013,9.82009526 95.2162802,9.04041231 C91.5534117,8.70512036 79.4822412,6.80675159 63.1434279,6.04557477 C46.4875661,5.62977374 34.4564707,6.6714234 30.068299,7.04385395 C30.0546159,7.53622985 30.0930881,8.09048236 30.068299,9.04041231 C35.9900133,8.34065081 41.4487835,8.20424431 47.1070018,8.04213313 L47.1070018,8.04213313 Z M172.391581,39.9870668 C165.29181,38.1947277 156.087866,38.5592504 152.346048,43.9801835 L152.346048,43.9801835 C154.630908,42.5367866 161.862388,40.0851595 171.389304,41.9836252 C179.117185,43.3828184 183.416624,39.4256277 183.416624,38.9887877 C183.371844,39.4442777 178.139483,41.3166246 172.391581,39.9870668 L172.391581,39.9870668 Z M64.1457045,4.04901642 L64.1457045,0.0558997039 L54.1229382,0.0558997039 C53.537452,0.0264461189 52.7776888,0.599640694 52.1183849,1.05417888 L41.093342,1.05417888 C40.0380978,0.970711447 39.1714518,1.75368605 39.0887887,3.05073724 L39.0887887,4.04901642 C42.8059945,3.87292369 47.3640471,3.73051827 53.1206616,4.04901642 C56.8397629,3.73051827 63.6060252,3.93366292 64.1457045,4.04901642 L64.1457045,4.04901642 Z M113.25726,64.9440463 C112.07736,75.5161742 102.931478,82.8818763 93.2117269,81.9147923 C88.9451719,81.4082025 85.3037413,80.0081325 81.1844073,75.9251172 C82.401307,74.49959 84.3489368,78.5227247 93.2117269,78.9199548 C101.708922,80.2172096 109.534784,73.7496858 110.25043,64.9440463 C111.3721,56.4618869 105.059038,48.6865643 96.2185568,47.9733003 C95.6202355,47.6913145 94.8475025,47.6635797 94.2140035,47.9733003 C93.716517,49.5431405 92.1662315,52.2019403 90.204897,53.9629753 C90.0932936,54.1961735 89.3789306,53.0078473 89.2026204,52.9646961 C87.709763,50.3751822 86.927391,49.5676751 86.1957905,49.9698586 C86.0266724,50.0855677 86.3827829,51.2509594 88.2003437,53.9629753 C87.9871544,54.2420424 88.6672451,55.4474361 88.2003437,55.9595337 C88.6645676,55.5290402 87.2963536,56.7013656 86.1957905,57.956092 C85.976335,57.5147396 84.2932444,56.5882932 83.1889606,55.9595337 C81.7458495,55.3092959 80.8204977,55.0863514 80.1821307,55.9595337 C80.3642479,55.8725241 81.0159568,56.5573584 82.1866839,57.956092 C83.0942498,57.9355607 84.2300548,58.6326623 84.1912372,58.9543712 C82.5646358,59.618845 80.2432238,60.6167616 78.1775774,60.9509296 L78.1775774,60.9509296 L78.1775774,60.9509296 C77.8993207,62.455787 77.7825807,63.7086497 78.1775774,64.9440463 C77.7825807,66.4271858 77.0982059,66.430386 76.1730241,66.9406046 C76.0989545,64.5913606 76.1450079,62.7454015 76.1730241,61.9492087 C77.3531061,51.376299 86.4995229,44.0100635 96.2185568,44.9784627 C106.8337,46.1531041 114.229552,55.2644936 113.25726,64.9440463 L113.25726,64.9440463 Z" id="path-1"></path>
    </defs>
    <g id="Symbols" stroke="none" stroke-width="1" fill="none" fill-rule="evenodd">
        <g id="Public-Footer" transform="translate(-140.000000, -73.000000)">
            <g id="Public-Footer-Gold">
                <g id="Stagecoach" transform="translate(140.000000, 73.000000)">
                    <mask id="mask-2" fill="white">
                        <use xlink:href="#path-1"></use>
                    </mask>
                    <use id="Fill-1" fill="#946E3A" xlink:href="#path-1"></use>
                </g>
            </g>
        </g>
    </g>
</svg>